<?xml version="1.0" encoding="UTF-8" standalone="no"?>
<!DOCTYPE svg PUBLIC "-//W3C//DTD SVG 1.1//EN"
 "http://www.w3.org/Graphics/SVG/1.1/DTD/svg11.dtd">
<!-- Generated by graphviz version 2.38.0 (20140413.2041)
 -->
<!-- Title: controllers_diagram Pages: 1 -->
<svg width="634pt" height="589pt"
 viewBox="0.00 0.00 633.92 589.00" xmlns="http://www.w3.org/2000/svg" xmlns:xlink="http://www.w3.org/1999/xlink">
<g id="graph0" class="graph" transform="scale(1 1) rotate(0) translate(256.1 333.5)">
<title>controllers_diagram</title>
<polygon fill="none" stroke="none" points="-256.1,255.5 -256.1,-333.5 377.821,-333.5 377.821,255.5 -256.1,255.5"/>
<!-- _diagram_info -->
<g id="node1" class="node"><title>_diagram_info</title>
<text text-anchor="start" x="8.31226" y="156.9" font-family="Times,serif" font-size="13.00">Controllers diagram</text>
<text text-anchor="start" x="8.31226" y="169.9" font-family="Times,serif" font-size="13.00">Date: Jun 13 2016 &#45; 09:19</text>
<text text-anchor="start" x="8.31226" y="182.9" font-family="Times,serif" font-size="13.00">Migration version: 20160613120821</text>
<text text-anchor="start" x="8.31226" y="195.9" font-family="Times,serif" font-size="13.00">Generated by RailRoady 1.4.2</text>
<text text-anchor="start" x="8.31226" y="208.9" font-family="Times,serif" font-size="13.00">http://railroady.prestonlee.com</text>
</g>
<!-- Admin::EditoriasController -->
<g id="node2" class="node"><title>Admin::EditoriasController</title>
<path fill="none" stroke="black" d="M119.621,107C119.621,107 266.379,107 266.379,107 272.379,107 278.379,101 278.379,95 278.379,95 278.379,-83 278.379,-83 278.379,-89 272.379,-95 266.379,-95 266.379,-95 119.621,-95 119.621,-95 113.621,-95 107.621,-89 107.621,-83 107.621,-83 107.621,95 107.621,95 107.621,101 113.621,107 119.621,107"/>
<text text-anchor="middle" x="193" y="-79.8" font-family="Times,serif" font-size="14.00">Admin::EditoriasController</text>
<polyline fill="none" stroke="black" points="107.621,-73 278.379,-73 "/>
<text text-anchor="start" x="115.621" y="-57.8" font-family="Times,serif" font-size="14.00">index</text>
<text text-anchor="start" x="115.621" y="-43.8" font-family="Times,serif" font-size="14.00">destroy</text>
<text text-anchor="start" x="115.621" y="-29.8" font-family="Times,serif" font-size="14.00">edit</text>
<text text-anchor="start" x="115.621" y="-15.8" font-family="Times,serif" font-size="14.00">create</text>
<text text-anchor="start" x="115.621" y="-1.8" font-family="Times,serif" font-size="14.00">new</text>
<text text-anchor="start" x="115.621" y="12.2" font-family="Times,serif" font-size="14.00">show</text>
<text text-anchor="start" x="115.621" y="26.2" font-family="Times,serif" font-size="14.00">update</text>
<polyline fill="none" stroke="black" points="107.621,33 278.379,33 "/>
<polyline fill="none" stroke="black" points="107.621,57 278.379,57 "/>
<text text-anchor="start" x="115.621" y="72.2" font-family="Times,serif" font-size="14.00">_layout</text>
<text text-anchor="start" x="115.621" y="86.2" font-family="Times,serif" font-size="14.00">editoria_params</text>
<text text-anchor="start" x="115.621" y="100.2" font-family="Times,serif" font-size="14.00">set_editoria</text>
</g>
<!-- Admin::MarcadoresController -->
<g id="node3" class="node"><title>Admin::MarcadoresController</title>
<path fill="none" stroke="black" d="M-96.145,107C-96.145,107 66.145,107 66.145,107 72.145,107 78.145,101 78.145,95 78.145,95 78.145,-83 78.145,-83 78.145,-89 72.145,-95 66.145,-95 66.145,-95 -96.145,-95 -96.145,-95 -102.145,-95 -108.145,-89 -108.145,-83 -108.145,-83 -108.145,95 -108.145,95 -108.145,101 -102.145,107 -96.145,107"/>
<text text-anchor="middle" x="-15" y="-79.8" font-family="Times,serif" font-size="14.00">Admin::MarcadoresController</text>
<polyline fill="none" stroke="black" points="-108.145,-73 78.145,-73 "/>
<text text-anchor="start" x="-100.145" y="-57.8" font-family="Times,serif" font-size="14.00">index</text>
<text text-anchor="start" x="-100.145" y="-43.8" font-family="Times,serif" font-size="14.00">destroy</text>
<text text-anchor="start" x="-100.145" y="-29.8" font-family="Times,serif" font-size="14.00">edit</text>
<text text-anchor="start" x="-100.145" y="-15.8" font-family="Times,serif" font-size="14.00">create</text>
<text text-anchor="start" x="-100.145" y="-1.8" font-family="Times,serif" font-size="14.00">new</text>
<text text-anchor="start" x="-100.145" y="12.2" font-family="Times,serif" font-size="14.00">show</text>
<text text-anchor="start" x="-100.145" y="26.2" font-family="Times,serif" font-size="14.00">update</text>
<polyline fill="none" stroke="black" points="-108.145,33 78.145,33 "/>
<polyline fill="none" stroke="black" points="-108.145,57 78.145,57 "/>
<text text-anchor="start" x="-100.145" y="72.2" font-family="Times,serif" font-size="14.00">_layout</text>
<text text-anchor="start" x="-100.145" y="86.2" font-family="Times,serif" font-size="14.00">marcador_params</text>
<text text-anchor="start" x="-100.145" y="100.2" font-family="Times,serif" font-size="14.00">set_marcador</text>
</g>
<!-- Admin::NoticiasController -->
<g id="node4" class="node"><title>Admin::NoticiasController</title>
<path fill="none" stroke="black" d="M137.565,-127C137.565,-127 280.435,-127 280.435,-127 286.435,-127 292.435,-133 292.435,-139 292.435,-139 292.435,-317 292.435,-317 292.435,-323 286.435,-329 280.435,-329 280.435,-329 137.565,-329 137.565,-329 131.565,-329 125.565,-323 125.565,-317 125.565,-317 125.565,-139 125.565,-139 125.565,-133 131.565,-127 137.565,-127"/>
<text text-anchor="middle" x="209" y="-313.8" font-family="Times,serif" font-size="14.00">Admin::NoticiasController</text>
<polyline fill="none" stroke="black" points="125.565,-307 292.435,-307 "/>
<text text-anchor="start" x="133.565" y="-291.8" font-family="Times,serif" font-size="14.00">index</text>
<text text-anchor="start" x="133.565" y="-277.8" font-family="Times,serif" font-size="14.00">destroy</text>
<text text-anchor="start" x="133.565" y="-263.8" font-family="Times,serif" font-size="14.00">edit</text>
<text text-anchor="start" x="133.565" y="-249.8" font-family="Times,serif" font-size="14.00">create</text>
<text text-anchor="start" x="133.565" y="-235.8" font-family="Times,serif" font-size="14.00">new</text>
<text text-anchor="start" x="133.565" y="-221.8" font-family="Times,serif" font-size="14.00">show</text>
<text text-anchor="start" x="133.565" y="-207.8" font-family="Times,serif" font-size="14.00">update</text>
<polyline fill="none" stroke="black" points="125.565,-201 292.435,-201 "/>
<polyline fill="none" stroke="black" points="125.565,-177 292.435,-177 "/>
<text text-anchor="start" x="133.565" y="-161.8" font-family="Times,serif" font-size="14.00">_layout</text>
<text text-anchor="start" x="133.565" y="-147.8" font-family="Times,serif" font-size="14.00">noticia_params</text>
<text text-anchor="start" x="133.565" y="-133.8" font-family="Times,serif" font-size="14.00">set_noticia</text>
</g>
<!-- Admin::UsersController -->
<g id="node5" class="node"><title>Admin::UsersController</title>
<path fill="none" stroke="black" d="M-42.0483,-127C-42.0483,-127 86.0483,-127 86.0483,-127 92.0483,-127 98.0483,-133 98.0483,-139 98.0483,-139 98.0483,-317 98.0483,-317 98.0483,-323 92.0483,-329 86.0483,-329 86.0483,-329 -42.0483,-329 -42.0483,-329 -48.0483,-329 -54.0483,-323 -54.0483,-317 -54.0483,-317 -54.0483,-139 -54.0483,-139 -54.0483,-133 -48.0483,-127 -42.0483,-127"/>
<text text-anchor="middle" x="22" y="-313.8" font-family="Times,serif" font-size="14.00">Admin::UsersController</text>
<polyline fill="none" stroke="black" points="-54.0483,-307 98.0483,-307 "/>
<text text-anchor="start" x="-46.0483" y="-291.8" font-family="Times,serif" font-size="14.00">index</text>
<text text-anchor="start" x="-46.0483" y="-277.8" font-family="Times,serif" font-size="14.00">destroy</text>
<text text-anchor="start" x="-46.0483" y="-263.8" font-family="Times,serif" font-size="14.00">edit</text>
<text text-anchor="start" x="-46.0483" y="-249.8" font-family="Times,serif" font-size="14.00">create</text>
<text text-anchor="start" x="-46.0483" y="-235.8" font-family="Times,serif" font-size="14.00">new</text>
<text text-anchor="start" x="-46.0483" y="-221.8" font-family="Times,serif" font-size="14.00">show</text>
<text text-anchor="start" x="-46.0483" y="-207.8" font-family="Times,serif" font-size="14.00">update</text>
<polyline fill="none" stroke="black" points="-54.0483,-201 98.0483,-201 "/>
<polyline fill="none" stroke="black" points="-54.0483,-177 98.0483,-177 "/>
<text text-anchor="start" x="-46.0483" y="-161.8" font-family="Times,serif" font-size="14.00">_layout</text>
<text text-anchor="start" x="-46.0483" y="-147.8" font-family="Times,serif" font-size="14.00">set_user</text>
<text text-anchor="start" x="-46.0483" y="-133.8" font-family="Times,serif" font-size="14.00">user_params</text>
</g>
<!-- AdminController -->
<g id="node6" class="node"><title>AdminController</title>
<path fill="none" stroke="black" d="M-186.217,-199C-186.217,-199 -97.7827,-199 -97.7827,-199 -91.7827,-199 -85.7827,-205 -85.7827,-211 -85.7827,-211 -85.7827,-279 -85.7827,-279 -85.7827,-285 -91.7827,-291 -97.7827,-291 -97.7827,-291 -186.217,-291 -186.217,-291 -192.217,-291 -198.217,-285 -198.217,-279 -198.217,-279 -198.217,-211 -198.217,-211 -198.217,-205 -192.217,-199 -186.217,-199"/>
<text text-anchor="middle" x="-142" y="-275.8" font-family="Times,serif" font-size="14.00">AdminController</text>
<polyline fill="none" stroke="black" points="-198.217,-269 -85.7827,-269 "/>
<polyline fill="none" stroke="black" points="-198.217,-245 -85.7827,-245 "/>
<polyline fill="none" stroke="black" points="-198.217,-221 -85.7827,-221 "/>
<text text-anchor="start" x="-190.217" y="-205.8" font-family="Times,serif" font-size="14.00">_layout</text>
</g>
<!-- ApplicationController -->
<g id="node7" class="node"><title>ApplicationController</title>
<path fill="none" stroke="black" d="M246.179,233C246.179,233 361.821,233 361.821,233 367.821,233 373.821,227 373.821,221 373.821,221 373.821,153 373.821,153 373.821,147 367.821,141 361.821,141 361.821,141 246.179,141 246.179,141 240.179,141 234.179,147 234.179,153 234.179,153 234.179,221 234.179,221 234.179,227 240.179,233 246.179,233"/>
<text text-anchor="middle" x="304" y="156.2" font-family="Times,serif" font-size="14.00">ApplicationController</text>
<polyline fill="none" stroke="black" points="234.179,163 373.821,163 "/>
<polyline fill="none" stroke="black" points="234.179,187 373.821,187 "/>
<polyline fill="none" stroke="black" points="234.179,211 373.821,211 "/>
<text text-anchor="start" x="242.179" y="226.2" font-family="Times,serif" font-size="14.00">_layout</text>
</g>
<!-- NoticiasController -->
<g id="node8" class="node"><title>NoticiasController</title>
<path fill="none" stroke="black" d="M-240.1,251C-240.1,251 -143.9,251 -143.9,251 -137.9,251 -131.9,245 -131.9,239 -131.9,239 -131.9,159 -131.9,159 -131.9,153 -137.9,147 -143.9,147 -143.9,147 -240.1,147 -240.1,147 -246.1,147 -252.1,153 -252.1,159 -252.1,159 -252.1,239 -252.1,239 -252.1,245 -246.1,251 -240.1,251"/>
<text text-anchor="middle" x="-192" y="162.2" font-family="Times,serif" font-size="14.00">NoticiasController</text>
<polyline fill="none" stroke="black" points="-252.1,169 -131.9,169 "/>
<text text-anchor="start" x="-244.1" y="184.2" font-family="Times,serif" font-size="14.00">index</text>
<text text-anchor="start" x="-244.1" y="198.2" font-family="Times,serif" font-size="14.00">show</text>
<polyline fill="none" stroke="black" points="-252.1,205 -131.9,205 "/>
<polyline fill="none" stroke="black" points="-252.1,229 -131.9,229 "/>
<text text-anchor="start" x="-244.1" y="244.2" font-family="Times,serif" font-size="14.00">_layout</text>
</g>
<!-- PaginasController -->
<g id="node9" class="node"><title>PaginasController</title>
<path fill="none" stroke="black" d="M-239.548,-73C-239.548,-73 -146.452,-73 -146.452,-73 -140.452,-73 -134.452,-79 -134.452,-85 -134.452,-85 -134.452,-151 -134.452,-151 -134.452,-157 -140.452,-163 -146.452,-163 -146.452,-163 -239.548,-163 -239.548,-163 -245.548,-163 -251.548,-157 -251.548,-151 -251.548,-151 -251.548,-85 -251.548,-85 -251.548,-79 -245.548,-73 -239.548,-73"/>
<text text-anchor="middle" x="-193" y="-147.8" font-family="Times,serif" font-size="14.00">PaginasController</text>
<polyline fill="none" stroke="black" points="-251.548,-141 -134.452,-141 "/>
<text text-anchor="start" x="-243.548" y="-125.8" font-family="Times,serif" font-size="14.00">principal</text>
<polyline fill="none" stroke="black" points="-251.548,-119 -134.452,-119 "/>
<polyline fill="none" stroke="black" points="-251.548,-95 -134.452,-95 "/>
<text text-anchor="start" x="-243.548" y="-79.8" font-family="Times,serif" font-size="14.00">_layout</text>
</g>
</g>
</svg>
