<?xml version="1.0" encoding="UTF-8" standalone="no"?>
<!DOCTYPE svg PUBLIC "-//W3C//DTD SVG 1.1//EN"
 "http://www.w3.org/Graphics/SVG/1.1/DTD/svg11.dtd">
<!-- Generated by graphviz version 2.38.0 (20140413.2041)
 -->
<!-- Title: models_diagram Pages: 1 -->
<svg width="488pt" height="153pt"
 viewBox="0.00 0.00 488.45 153.00" xmlns="http://www.w3.org/2000/svg" xmlns:xlink="http://www.w3.org/1999/xlink">
<g id="graph0" class="graph" transform="scale(1 1) rotate(0) translate(4 149)">
<title>models_diagram</title>
<polygon fill="none" stroke="none" points="-4,4 -4,-149 484.45,-149 484.45,4 -4,4"/>
<!-- _diagram_info -->
<g id="node1" class="node"><title>_diagram_info</title>
<text text-anchor="start" x="8" y="-130.6" font-family="Times,serif" font-size="13.00">Models diagram</text>
<text text-anchor="start" x="8" y="-117.6" font-family="Times,serif" font-size="13.00">Date: Jun 06 2016 &#45; 10:30</text>
<text text-anchor="start" x="8" y="-104.6" font-family="Times,serif" font-size="13.00">Migration version: 20160606115728</text>
<text text-anchor="start" x="8" y="-91.6" font-family="Times,serif" font-size="13.00">Generated by RailRoady 1.4.2</text>
<text text-anchor="start" x="8" y="-78.6" font-family="Times,serif" font-size="13.00">http://railroady.prestonlee.com</text>
</g>
<!-- Editoria -->
<g id="node2" class="node"><title>Editoria</title>
<ellipse fill="none" stroke="black" cx="263.45" cy="-108.5" rx="38.6869" ry="18"/>
<text text-anchor="middle" x="263.45" y="-104.3" font-family="Times,serif" font-size="14.00">Editoria</text>
</g>
<!-- Noticia -->
<g id="node4" class="node"><title>Noticia</title>
<ellipse fill="none" stroke="black" cx="364.45" cy="-18" rx="36.2732" ry="18"/>
<text text-anchor="middle" x="364.45" y="-13.8" font-family="Times,serif" font-size="14.00">Noticia</text>
</g>
<!-- Editoria&#45;&gt;Noticia -->
<g id="edge1" class="edge"><title>Editoria&#45;&gt;Noticia</title>
<path fill="none" stroke="#2ac74a" d="M287.515,-86.4131C303.226,-72.6468 323.69,-54.7154 339.563,-40.807"/>
<ellipse fill="none" stroke="#2ac74a" cx="284.051" cy="-89.4483" rx="4.00002" ry="4.00002"/>
<polygon fill="#2ac74a" stroke="#2ac74a" points="339.874,-40.5343 350.361,-37.3285 343.634,-37.2392 347.395,-33.944 347.395,-33.944 347.395,-33.944 343.634,-37.2392 344.429,-30.5595 339.874,-40.5343 339.874,-40.5343"/>
</g>
<!-- Marcador -->
<g id="node3" class="node"><title>Marcador</title>
<ellipse fill="none" stroke="black" cx="364.45" cy="-108.5" rx="44.4578" ry="18"/>
<text text-anchor="middle" x="364.45" y="-104.3" font-family="Times,serif" font-size="14.00">Marcador</text>
</g>
<!-- Marcador&#45;&gt;Noticia -->
<g id="edge2" class="edge"><title>Marcador&#45;&gt;Noticia</title>
<path fill="none" stroke="#4fe415" d="M364.45,-80.0918C364.45,-69.2891 364.45,-56.9123 364.45,-46.1362"/>
<polygon fill="#4fe415" stroke="#4fe415" points="364.45,-80.4363 359.95,-90.4363 364.45,-85.4363 364.45,-90.4363 364.45,-90.4363 364.45,-90.4363 364.45,-85.4363 368.95,-90.4364 364.45,-80.4363 364.45,-80.4363"/>
<polygon fill="#4fe415" stroke="#4fe415" points="364.45,-46.0113 368.95,-36.0113 364.45,-41.0113 364.45,-36.0113 364.45,-36.0113 364.45,-36.0113 364.45,-41.0113 359.95,-36.0113 364.45,-46.0113 364.45,-46.0113"/>
</g>
<!-- User -->
<g id="node5" class="node"><title>User</title>
<ellipse fill="none" stroke="black" cx="453.45" cy="-108.5" rx="27" ry="18"/>
<text text-anchor="middle" x="453.45" y="-104.3" font-family="Times,serif" font-size="14.00">User</text>
</g>
<!-- User&#45;&gt;Noticia -->
<g id="edge3" class="edge"><title>User&#45;&gt;Noticia</title>
<path fill="none" stroke="#f51ceb" d="M432.689,-86.8562C419.121,-73.3642 401.39,-55.7325 387.402,-41.8236"/>
<ellipse fill="none" stroke="#f51ceb" cx="435.917" cy="-90.0656" rx="4.00002" ry="4.00002"/>
<polygon fill="#f51ceb" stroke="#f51ceb" points="387.158,-41.5806 383.24,-31.3385 383.612,-38.055 380.067,-34.5295 380.067,-34.5295 380.067,-34.5295 383.612,-38.055 376.894,-37.7204 387.158,-41.5806 387.158,-41.5806"/>
</g>
</g>
</svg>
