<?xml version="1.0" encoding="UTF-8" standalone="no"?>
<!DOCTYPE svg PUBLIC "-//W3C//DTD SVG 1.1//EN"
 "http://www.w3.org/Graphics/SVG/1.1/DTD/svg11.dtd">
<!-- Generated by graphviz version 2.38.0 (20140413.2041)
 -->
<!-- Title: models_diagram Pages: 1 -->
<svg width="755pt" height="456pt"
 viewBox="0.00 0.00 755.50 456.00" xmlns="http://www.w3.org/2000/svg" xmlns:xlink="http://www.w3.org/1999/xlink">
<g id="graph0" class="graph" transform="scale(1 1) rotate(0) translate(4 452)">
<title>models_diagram</title>
<polygon fill="none" stroke="none" points="-4,4 -4,-452 751.497,-452 751.497,4 -4,4"/>
<!-- _diagram_info -->
<g id="node1" class="node"><title>_diagram_info</title>
<text text-anchor="start" x="8" y="-356.6" font-family="Times,serif" font-size="13.00">Models diagram</text>
<text text-anchor="start" x="8" y="-343.6" font-family="Times,serif" font-size="13.00">Date: Jun 06 2016 &#45; 10:29</text>
<text text-anchor="start" x="8" y="-330.6" font-family="Times,serif" font-size="13.00">Migration version: 20160606115728</text>
<text text-anchor="start" x="8" y="-317.6" font-family="Times,serif" font-size="13.00">Generated by RailRoady 1.4.2</text>
<text text-anchor="start" x="8" y="-304.6" font-family="Times,serif" font-size="13.00">http://railroady.prestonlee.com</text>
</g>
<!-- Editoria -->
<g id="node2" class="node"><title>Editoria</title>
<path fill="none" stroke="black" d="M236.944,-284.5C236.944,-284.5 345.955,-284.5 345.955,-284.5 351.955,-284.5 357.955,-290.5 357.955,-296.5 357.955,-296.5 357.955,-372.5 357.955,-372.5 357.955,-378.5 351.955,-384.5 345.955,-384.5 345.955,-384.5 236.944,-384.5 236.944,-384.5 230.944,-384.5 224.944,-378.5 224.944,-372.5 224.944,-372.5 224.944,-296.5 224.944,-296.5 224.944,-290.5 230.944,-284.5 236.944,-284.5"/>
<text text-anchor="middle" x="291.45" y="-369.3" font-family="Times,serif" font-size="14.00">Editoria</text>
<polyline fill="none" stroke="black" points="224.944,-362.5 357.955,-362.5 "/>
<text text-anchor="start" x="232.944" y="-347.3" font-family="Times,serif" font-size="14.00">id :int(11)</text>
<text text-anchor="start" x="232.944" y="-333.3" font-family="Times,serif" font-size="14.00">nome :varchar(255)</text>
<text text-anchor="start" x="232.944" y="-319.3" font-family="Times,serif" font-size="14.00">status :tinyint(1)</text>
<text text-anchor="start" x="232.944" y="-305.3" font-family="Times,serif" font-size="14.00">created_at :datetime</text>
<text text-anchor="start" x="232.944" y="-291.3" font-family="Times,serif" font-size="14.00">updated_at :datetime</text>
</g>
<!-- Noticia -->
<g id="node4" class="node"><title>Noticia</title>
<path fill="none" stroke="black" d="M373.179,-0.5C373.179,-0.5 511.721,-0.5 511.721,-0.5 517.721,-0.5 523.721,-6.5 523.721,-12.5 523.721,-12.5 523.721,-172.5 523.721,-172.5 523.721,-178.5 517.721,-184.5 511.721,-184.5 511.721,-184.5 373.179,-184.5 373.179,-184.5 367.179,-184.5 361.179,-178.5 361.179,-172.5 361.179,-172.5 361.179,-12.5 361.179,-12.5 361.179,-6.5 367.179,-0.5 373.179,-0.5"/>
<text text-anchor="middle" x="442.45" y="-169.3" font-family="Times,serif" font-size="14.00">Noticia</text>
<polyline fill="none" stroke="black" points="361.179,-162.5 523.721,-162.5 "/>
<text text-anchor="start" x="369.179" y="-147.3" font-family="Times,serif" font-size="14.00">updated_at :datetime</text>
<text text-anchor="start" x="369.179" y="-133.3" font-family="Times,serif" font-size="14.00">user_id :int(11)</text>
<text text-anchor="start" x="369.179" y="-119.3" font-family="Times,serif" font-size="14.00">editoria_id :int(11)</text>
<text text-anchor="start" x="369.179" y="-105.3" font-family="Times,serif" font-size="14.00">titulo :varchar(255)</text>
<text text-anchor="start" x="369.179" y="-91.3" font-family="Times,serif" font-size="14.00">subtitulo :varchar(255)</text>
<text text-anchor="start" x="369.179" y="-77.3" font-family="Times,serif" font-size="14.00">conteudo :text</text>
<text text-anchor="start" x="369.179" y="-63.3" font-family="Times,serif" font-size="14.00">data_publicacao :datetime</text>
<text text-anchor="start" x="369.179" y="-49.3" font-family="Times,serif" font-size="14.00">imagem :varchar(255)</text>
<text text-anchor="start" x="369.179" y="-35.3" font-family="Times,serif" font-size="14.00">status :tinyint(1)</text>
<text text-anchor="start" x="369.179" y="-21.3" font-family="Times,serif" font-size="14.00">created_at :datetime</text>
<text text-anchor="start" x="369.179" y="-7.3" font-family="Times,serif" font-size="14.00">id :int(11)</text>
</g>
<!-- Editoria&#45;&gt;Noticia -->
<g id="edge1" class="edge"><title>Editoria&#45;&gt;Noticia</title>
<path fill="none" stroke="#3d35ce" d="M326.691,-277.487C342.477,-252.396 361.583,-222.031 379.682,-193.263"/>
<ellipse fill="none" stroke="#3d35ce" cx="324.501" cy="-280.968" rx="4.00002" ry="4.00002"/>
<polygon fill="#3d35ce" stroke="#3d35ce" points="379.684,-193.261 388.818,-187.193 382.346,-189.029 385.009,-184.797 385.009,-184.797 385.009,-184.797 382.346,-189.029 381.2,-182.4 379.684,-193.261 379.684,-193.261"/>
</g>
<!-- Marcador -->
<g id="node3" class="node"><title>Marcador</title>
<path fill="none" stroke="black" d="M387.944,-291.5C387.944,-291.5 496.955,-291.5 496.955,-291.5 502.955,-291.5 508.955,-297.5 508.955,-303.5 508.955,-303.5 508.955,-365.5 508.955,-365.5 508.955,-371.5 502.955,-377.5 496.955,-377.5 496.955,-377.5 387.944,-377.5 387.944,-377.5 381.944,-377.5 375.944,-371.5 375.944,-365.5 375.944,-365.5 375.944,-303.5 375.944,-303.5 375.944,-297.5 381.944,-291.5 387.944,-291.5"/>
<text text-anchor="middle" x="442.45" y="-362.3" font-family="Times,serif" font-size="14.00">Marcador</text>
<polyline fill="none" stroke="black" points="375.944,-355.5 508.955,-355.5 "/>
<text text-anchor="start" x="383.944" y="-340.3" font-family="Times,serif" font-size="14.00">id :int(11)</text>
<text text-anchor="start" x="383.944" y="-326.3" font-family="Times,serif" font-size="14.00">nome :varchar(255)</text>
<text text-anchor="start" x="383.944" y="-312.3" font-family="Times,serif" font-size="14.00">created_at :datetime</text>
<text text-anchor="start" x="383.944" y="-298.3" font-family="Times,serif" font-size="14.00">updated_at :datetime</text>
</g>
<!-- Marcador&#45;&gt;Noticia -->
<g id="edge2" class="edge"><title>Marcador&#45;&gt;Noticia</title>
<path fill="none" stroke="#6b13dd" d="M442.45,-281.36C442.45,-255.952 442.45,-224.498 442.45,-194.642"/>
<polygon fill="#6b13dd" stroke="#6b13dd" points="442.45,-281.421 437.95,-291.421 442.45,-286.421 442.45,-291.421 442.45,-291.421 442.45,-291.421 442.45,-286.421 446.95,-291.421 442.45,-281.421 442.45,-281.421"/>
<polygon fill="#6b13dd" stroke="#6b13dd" points="442.45,-194.589 446.95,-184.589 442.45,-189.589 442.45,-184.589 442.45,-184.589 442.45,-184.589 442.45,-189.589 437.95,-184.589 442.45,-194.589 442.45,-194.589"/>
</g>
<!-- User -->
<g id="node5" class="node"><title>User</title>
<path fill="none" stroke="black" d="M539.403,-221.5C539.403,-221.5 735.497,-221.5 735.497,-221.5 741.497,-221.5 747.497,-227.5 747.497,-233.5 747.497,-233.5 747.497,-435.5 747.497,-435.5 747.497,-441.5 741.497,-447.5 735.497,-447.5 735.497,-447.5 539.403,-447.5 539.403,-447.5 533.403,-447.5 527.403,-441.5 527.403,-435.5 527.403,-435.5 527.403,-233.5 527.403,-233.5 527.403,-227.5 533.403,-221.5 539.403,-221.5"/>
<text text-anchor="middle" x="637.45" y="-432.3" font-family="Times,serif" font-size="14.00">User</text>
<polyline fill="none" stroke="black" points="527.403,-425.5 747.497,-425.5 "/>
<text text-anchor="start" x="535.403" y="-410.3" font-family="Times,serif" font-size="14.00">name :varchar(255)</text>
<text text-anchor="start" x="535.403" y="-396.3" font-family="Times,serif" font-size="14.00">email :varchar(255)</text>
<text text-anchor="start" x="535.403" y="-382.3" font-family="Times,serif" font-size="14.00">encrypted_password :varchar(255)</text>
<text text-anchor="start" x="535.403" y="-368.3" font-family="Times,serif" font-size="14.00">reset_password_token :varchar(255)</text>
<text text-anchor="start" x="535.403" y="-354.3" font-family="Times,serif" font-size="14.00">reset_password_sent_at :datetime</text>
<text text-anchor="start" x="535.403" y="-340.3" font-family="Times,serif" font-size="14.00">remember_created_at :datetime</text>
<text text-anchor="start" x="535.403" y="-326.3" font-family="Times,serif" font-size="14.00">sign_in_count :int(11)</text>
<text text-anchor="start" x="535.403" y="-312.3" font-family="Times,serif" font-size="14.00">current_sign_in_at :datetime</text>
<text text-anchor="start" x="535.403" y="-298.3" font-family="Times,serif" font-size="14.00">last_sign_in_at :datetime</text>
<text text-anchor="start" x="535.403" y="-284.3" font-family="Times,serif" font-size="14.00">current_sign_in_ip :varchar(255)</text>
<text text-anchor="start" x="535.403" y="-270.3" font-family="Times,serif" font-size="14.00">last_sign_in_ip :varchar(255)</text>
<text text-anchor="start" x="535.403" y="-256.3" font-family="Times,serif" font-size="14.00">created_at :datetime</text>
<text text-anchor="start" x="535.403" y="-242.3" font-family="Times,serif" font-size="14.00">updated_at :datetime</text>
<text text-anchor="start" x="535.403" y="-228.3" font-family="Times,serif" font-size="14.00">id :int(11)</text>
</g>
<!-- User&#45;&gt;Noticia -->
<g id="edge3" class="edge"><title>User&#45;&gt;Noticia</title>
<path fill="none" stroke="#394fd6" d="M541.113,-214.932C535.074,-207.5 529.03,-200.06 523.071,-192.727"/>
<ellipse fill="none" stroke="#394fd6" cx="543.708" cy="-218.125" rx="4.00002" ry="4.00002"/>
<polygon fill="#394fd6" stroke="#394fd6" points="522.95,-192.578 520.137,-181.979 519.797,-188.697 516.645,-184.817 516.645,-184.817 516.645,-184.817 519.797,-188.697 513.152,-187.654 522.95,-192.578 522.95,-192.578"/>
</g>
</g>
</svg>
