<?xml version="1.0" encoding="UTF-8" standalone="no"?>
<!DOCTYPE svg PUBLIC "-//W3C//DTD SVG 1.1//EN"
 "http://www.w3.org/Graphics/SVG/1.1/DTD/svg11.dtd">
<!-- Generated by graphviz version 2.38.0 (20140413.2041)
 -->
<!-- Title: models_diagram Pages: 1 -->
<svg width="568pt" height="607pt"
 viewBox="0.00 0.00 568.45 607.00" xmlns="http://www.w3.org/2000/svg" xmlns:xlink="http://www.w3.org/1999/xlink">
<g id="graph0" class="graph" transform="scale(1 1) rotate(0) translate(4 603)">
<title>models_diagram</title>
<polygon fill="none" stroke="none" points="-4,4 -4,-603 564.449,-603 564.449,4 -4,4"/>
<!-- _diagram_info -->
<g id="node1" class="node"><title>_diagram_info</title>
<text text-anchor="start" x="184.818" y="-563.6" font-family="Times,serif" font-size="13.00">Models diagram</text>
<text text-anchor="start" x="184.818" y="-550.6" font-family="Times,serif" font-size="13.00">Date: Jun 13 2016 &#45; 09:18</text>
<text text-anchor="start" x="184.818" y="-537.6" font-family="Times,serif" font-size="13.00">Migration version: 20160613120821</text>
<text text-anchor="start" x="184.818" y="-524.6" font-family="Times,serif" font-size="13.00">Generated by RailRoady 1.4.2</text>
<text text-anchor="start" x="184.818" y="-511.6" font-family="Times,serif" font-size="13.00">http://railroady.prestonlee.com</text>
</g>
<!-- Editoria -->
<g id="node2" class="node"><title>Editoria</title>
<path fill="none" stroke="black" d="M12,-284.5C12,-284.5 121.011,-284.5 121.011,-284.5 127.011,-284.5 133.011,-290.5 133.011,-296.5 133.011,-296.5 133.011,-372.5 133.011,-372.5 133.011,-378.5 127.011,-384.5 121.011,-384.5 121.011,-384.5 12,-384.5 12,-384.5 6,-384.5 0,-378.5 0,-372.5 0,-372.5 0,-296.5 0,-296.5 0,-290.5 6,-284.5 12,-284.5"/>
<text text-anchor="middle" x="66.5054" y="-369.3" font-family="Times,serif" font-size="14.00">Editoria</text>
<polyline fill="none" stroke="black" points="0,-362.5 133.011,-362.5 "/>
<text text-anchor="start" x="8" y="-347.3" font-family="Times,serif" font-size="14.00">id :int(11)</text>
<text text-anchor="start" x="8" y="-333.3" font-family="Times,serif" font-size="14.00">nome :varchar(255)</text>
<text text-anchor="start" x="8" y="-319.3" font-family="Times,serif" font-size="14.00">status :tinyint(1)</text>
<text text-anchor="start" x="8" y="-305.3" font-family="Times,serif" font-size="14.00">created_at :datetime</text>
<text text-anchor="start" x="8" y="-291.3" font-family="Times,serif" font-size="14.00">updated_at :datetime</text>
</g>
<!-- Noticia -->
<g id="node4" class="node"><title>Noticia</title>
<path fill="none" stroke="black" d="M148.234,-0.5C148.234,-0.5 286.776,-0.5 286.776,-0.5 292.776,-0.5 298.776,-6.5 298.776,-12.5 298.776,-12.5 298.776,-172.5 298.776,-172.5 298.776,-178.5 292.776,-184.5 286.776,-184.5 286.776,-184.5 148.234,-184.5 148.234,-184.5 142.234,-184.5 136.234,-178.5 136.234,-172.5 136.234,-172.5 136.234,-12.5 136.234,-12.5 136.234,-6.5 142.234,-0.5 148.234,-0.5"/>
<text text-anchor="middle" x="217.505" y="-169.3" font-family="Times,serif" font-size="14.00">Noticia</text>
<polyline fill="none" stroke="black" points="136.234,-162.5 298.776,-162.5 "/>
<text text-anchor="start" x="144.234" y="-147.3" font-family="Times,serif" font-size="14.00">updated_at :datetime</text>
<text text-anchor="start" x="144.234" y="-133.3" font-family="Times,serif" font-size="14.00">user_id :int(11)</text>
<text text-anchor="start" x="144.234" y="-119.3" font-family="Times,serif" font-size="14.00">editoria_id :int(11)</text>
<text text-anchor="start" x="144.234" y="-105.3" font-family="Times,serif" font-size="14.00">titulo :varchar(255)</text>
<text text-anchor="start" x="144.234" y="-91.3" font-family="Times,serif" font-size="14.00">subtitulo :varchar(255)</text>
<text text-anchor="start" x="144.234" y="-77.3" font-family="Times,serif" font-size="14.00">conteudo :text</text>
<text text-anchor="start" x="144.234" y="-63.3" font-family="Times,serif" font-size="14.00">data_publicacao :datetime</text>
<text text-anchor="start" x="144.234" y="-49.3" font-family="Times,serif" font-size="14.00">imagem :varchar(255)</text>
<text text-anchor="start" x="144.234" y="-35.3" font-family="Times,serif" font-size="14.00">status :tinyint(1)</text>
<text text-anchor="start" x="144.234" y="-21.3" font-family="Times,serif" font-size="14.00">created_at :datetime</text>
<text text-anchor="start" x="144.234" y="-7.3" font-family="Times,serif" font-size="14.00">id :int(11)</text>
</g>
<!-- Editoria&#45;&gt;Noticia -->
<g id="edge1" class="edge"><title>Editoria&#45;&gt;Noticia</title>
<path fill="none" stroke="#b8bdb3" d="M101.747,-277.487C117.533,-252.396 136.638,-222.031 154.738,-193.263"/>
<ellipse fill="none" stroke="#b8bdb3" cx="99.557" cy="-280.968" rx="4.00002" ry="4.00002"/>
<polygon fill="#b8bdb3" stroke="#b8bdb3" points="154.739,-193.261 163.873,-187.193 157.402,-189.029 160.065,-184.797 160.065,-184.797 160.065,-184.797 157.402,-189.029 156.256,-182.4 154.739,-193.261 154.739,-193.261"/>
</g>
<!-- Marcador -->
<g id="node3" class="node"><title>Marcador</title>
<path fill="none" stroke="black" d="M163,-291.5C163,-291.5 272.011,-291.5 272.011,-291.5 278.011,-291.5 284.011,-297.5 284.011,-303.5 284.011,-303.5 284.011,-365.5 284.011,-365.5 284.011,-371.5 278.011,-377.5 272.011,-377.5 272.011,-377.5 163,-377.5 163,-377.5 157,-377.5 151,-371.5 151,-365.5 151,-365.5 151,-303.5 151,-303.5 151,-297.5 157,-291.5 163,-291.5"/>
<text text-anchor="middle" x="217.505" y="-362.3" font-family="Times,serif" font-size="14.00">Marcador</text>
<polyline fill="none" stroke="black" points="151,-355.5 284.011,-355.5 "/>
<text text-anchor="start" x="159" y="-340.3" font-family="Times,serif" font-size="14.00">id :int(11)</text>
<text text-anchor="start" x="159" y="-326.3" font-family="Times,serif" font-size="14.00">nome :varchar(255)</text>
<text text-anchor="start" x="159" y="-312.3" font-family="Times,serif" font-size="14.00">created_at :datetime</text>
<text text-anchor="start" x="159" y="-298.3" font-family="Times,serif" font-size="14.00">updated_at :datetime</text>
</g>
<!-- Marcador&#45;&gt;Noticia -->
<g id="edge2" class="edge"><title>Marcador&#45;&gt;Noticia</title>
<path fill="none" stroke="#1d264e" d="M217.505,-281.36C217.505,-255.952 217.505,-224.498 217.505,-194.642"/>
<polygon fill="#1d264e" stroke="#1d264e" points="217.505,-281.421 213.005,-291.421 217.505,-286.421 217.505,-291.421 217.505,-291.421 217.505,-291.421 217.505,-286.421 222.005,-291.421 217.505,-281.421 217.505,-281.421"/>
<polygon fill="#1d264e" stroke="#1d264e" points="217.505,-194.589 222.005,-184.589 217.505,-189.589 217.505,-184.589 217.505,-184.589 217.505,-184.589 217.505,-189.589 213.005,-184.589 217.505,-194.589 217.505,-194.589"/>
</g>
<!-- Permission -->
<g id="node5" class="node"><title>Permission</title>
<path fill="none" stroke="black" d="M427,-42.5C427,-42.5 536.011,-42.5 536.011,-42.5 542.011,-42.5 548.011,-48.5 548.011,-54.5 548.011,-54.5 548.011,-130.5 548.011,-130.5 548.011,-136.5 542.011,-142.5 536.011,-142.5 536.011,-142.5 427,-142.5 427,-142.5 421,-142.5 415,-136.5 415,-130.5 415,-130.5 415,-54.5 415,-54.5 415,-48.5 421,-42.5 427,-42.5"/>
<text text-anchor="middle" x="481.505" y="-127.3" font-family="Times,serif" font-size="14.00">Permission</text>
<polyline fill="none" stroke="black" points="415,-120.5 548.011,-120.5 "/>
<text text-anchor="start" x="423" y="-105.3" font-family="Times,serif" font-size="14.00">id :int(11)</text>
<text text-anchor="start" x="423" y="-91.3" font-family="Times,serif" font-size="14.00">role_id :int(11)</text>
<text text-anchor="start" x="423" y="-77.3" font-family="Times,serif" font-size="14.00">user_id :int(11)</text>
<text text-anchor="start" x="423" y="-63.3" font-family="Times,serif" font-size="14.00">created_at :datetime</text>
<text text-anchor="start" x="423" y="-49.3" font-family="Times,serif" font-size="14.00">updated_at :datetime</text>
</g>
<!-- Role -->
<g id="node6" class="node"><title>Role</title>
<path fill="none" stroke="black" d="M414.562,-484.5C414.562,-484.5 548.449,-484.5 548.449,-484.5 554.449,-484.5 560.449,-490.5 560.449,-496.5 560.449,-496.5 560.449,-586.5 560.449,-586.5 560.449,-592.5 554.449,-598.5 548.449,-598.5 548.449,-598.5 414.562,-598.5 414.562,-598.5 408.562,-598.5 402.562,-592.5 402.562,-586.5 402.562,-586.5 402.562,-496.5 402.562,-496.5 402.562,-490.5 408.562,-484.5 414.562,-484.5"/>
<text text-anchor="middle" x="481.505" y="-583.3" font-family="Times,serif" font-size="14.00">Role</text>
<polyline fill="none" stroke="black" points="402.562,-576.5 560.449,-576.5 "/>
<text text-anchor="start" x="410.562" y="-561.3" font-family="Times,serif" font-size="14.00">id :int(11)</text>
<text text-anchor="start" x="410.562" y="-547.3" font-family="Times,serif" font-size="14.00">name :varchar(255)</text>
<text text-anchor="start" x="410.562" y="-533.3" font-family="Times,serif" font-size="14.00">description :varchar(255)</text>
<text text-anchor="start" x="410.562" y="-519.3" font-family="Times,serif" font-size="14.00">value :varchar(255)</text>
<text text-anchor="start" x="410.562" y="-505.3" font-family="Times,serif" font-size="14.00">created_at :datetime</text>
<text text-anchor="start" x="410.562" y="-491.3" font-family="Times,serif" font-size="14.00">updated_at :datetime</text>
</g>
<!-- Role&#45;&gt;Permission -->
<g id="edge3" class="edge"><title>Role&#45;&gt;Permission</title>
<path fill="none" stroke="#84ad62" d="M521.057,-476.893C525.352,-467.497 529.05,-457.705 531.505,-448 556.248,-350.192 550.248,-320.133 531.505,-221 527.119,-197.802 518.614,-173.419 509.844,-152.259"/>
<ellipse fill="none" stroke="#84ad62" cx="519.223" cy="-480.727" rx="4.00002" ry="4.00002"/>
<polygon fill="#84ad62" stroke="#84ad62" points="509.726,-151.982 509.951,-141.018 507.768,-147.381 505.81,-142.78 505.81,-142.78 505.81,-142.78 507.768,-147.381 501.67,-144.542 509.726,-151.982 509.726,-151.982"/>
</g>
<!-- User -->
<g id="node7" class="node"><title>User</title>
<path fill="none" stroke="black" d="M314.458,-221.5C314.458,-221.5 510.552,-221.5 510.552,-221.5 516.552,-221.5 522.552,-227.5 522.552,-233.5 522.552,-233.5 522.552,-435.5 522.552,-435.5 522.552,-441.5 516.552,-447.5 510.552,-447.5 510.552,-447.5 314.458,-447.5 314.458,-447.5 308.458,-447.5 302.458,-441.5 302.458,-435.5 302.458,-435.5 302.458,-233.5 302.458,-233.5 302.458,-227.5 308.458,-221.5 314.458,-221.5"/>
<text text-anchor="middle" x="412.505" y="-432.3" font-family="Times,serif" font-size="14.00">User</text>
<polyline fill="none" stroke="black" points="302.458,-425.5 522.552,-425.5 "/>
<text text-anchor="start" x="310.458" y="-410.3" font-family="Times,serif" font-size="14.00">name :varchar(255)</text>
<text text-anchor="start" x="310.458" y="-396.3" font-family="Times,serif" font-size="14.00">email :varchar(255)</text>
<text text-anchor="start" x="310.458" y="-382.3" font-family="Times,serif" font-size="14.00">encrypted_password :varchar(255)</text>
<text text-anchor="start" x="310.458" y="-368.3" font-family="Times,serif" font-size="14.00">reset_password_token :varchar(255)</text>
<text text-anchor="start" x="310.458" y="-354.3" font-family="Times,serif" font-size="14.00">reset_password_sent_at :datetime</text>
<text text-anchor="start" x="310.458" y="-340.3" font-family="Times,serif" font-size="14.00">remember_created_at :datetime</text>
<text text-anchor="start" x="310.458" y="-326.3" font-family="Times,serif" font-size="14.00">sign_in_count :int(11)</text>
<text text-anchor="start" x="310.458" y="-312.3" font-family="Times,serif" font-size="14.00">current_sign_in_at :datetime</text>
<text text-anchor="start" x="310.458" y="-298.3" font-family="Times,serif" font-size="14.00">last_sign_in_at :datetime</text>
<text text-anchor="start" x="310.458" y="-284.3" font-family="Times,serif" font-size="14.00">current_sign_in_ip :varchar(255)</text>
<text text-anchor="start" x="310.458" y="-270.3" font-family="Times,serif" font-size="14.00">last_sign_in_ip :varchar(255)</text>
<text text-anchor="start" x="310.458" y="-256.3" font-family="Times,serif" font-size="14.00">created_at :datetime</text>
<text text-anchor="start" x="310.458" y="-242.3" font-family="Times,serif" font-size="14.00">updated_at :datetime</text>
<text text-anchor="start" x="310.458" y="-228.3" font-family="Times,serif" font-size="14.00">id :int(11)</text>
</g>
<!-- Role&#45;&gt;User -->
<g id="edge4" class="edge"><title>Role&#45;&gt;User</title>
<path fill="none" stroke="#6289f5" d="M459.406,-474.844C457.529,-469.267 455.596,-463.522 453.632,-457.689"/>
<polygon fill="#6289f5" stroke="#6289f5" points="459.461,-475.005 458.386,-485.918 461.056,-479.744 462.651,-484.483 462.651,-484.483 462.651,-484.483 461.056,-479.744 466.916,-483.047 459.461,-475.005 459.461,-475.005"/>
<polygon fill="#6289f5" stroke="#6289f5" points="453.495,-457.28 454.57,-446.367 451.9,-452.541 450.305,-447.802 450.305,-447.802 450.305,-447.802 451.9,-452.541 446.04,-449.238 453.495,-457.28 453.495,-457.28"/>
</g>
<!-- User&#45;&gt;Noticia -->
<g id="edge5" class="edge"><title>User&#45;&gt;Noticia</title>
<path fill="none" stroke="#d52500" d="M316.169,-214.932C310.13,-207.5 304.085,-200.06 298.127,-192.727"/>
<ellipse fill="none" stroke="#d52500" cx="318.763" cy="-218.125" rx="4.00002" ry="4.00002"/>
<polygon fill="#d52500" stroke="#d52500" points="298.006,-192.578 295.193,-181.979 294.853,-188.697 291.7,-184.817 291.7,-184.817 291.7,-184.817 294.853,-188.697 288.208,-187.654 298.006,-192.578 298.006,-192.578"/>
</g>
<!-- User&#45;&gt;Permission -->
<g id="edge6" class="edge"><title>User&#45;&gt;Permission</title>
<path fill="none" stroke="#dd09a2" d="M447.015,-213.466C453.116,-192.246 459.216,-171.029 464.553,-152.466"/>
<ellipse fill="none" stroke="#dd09a2" cx="445.888" cy="-217.385" rx="4.00001" ry="4.00001"/>
<polygon fill="#dd09a2" stroke="#dd09a2" points="464.588,-152.341 471.676,-143.974 465.97,-147.536 467.352,-142.731 467.352,-142.731 467.352,-142.731 465.97,-147.536 463.027,-141.487 464.588,-152.341 464.588,-152.341"/>
</g>
</g>
</svg>
