<?xml version="1.0" encoding="UTF-8" standalone="no"?>
<!DOCTYPE svg PUBLIC "-//W3C//DTD SVG 1.1//EN"
 "http://www.w3.org/Graphics/SVG/1.1/DTD/svg11.dtd">
<!-- Generated by graphviz version 2.38.0 (20140413.2041)
 -->
<!-- Title: models_diagram Pages: 1 -->
<svg width="321pt" height="225pt"
 viewBox="0.00 0.00 321.01 225.00" xmlns="http://www.w3.org/2000/svg" xmlns:xlink="http://www.w3.org/1999/xlink">
<g id="graph0" class="graph" transform="scale(1 1) rotate(0) translate(4 221)">
<title>models_diagram</title>
<polygon fill="none" stroke="none" points="-4,4 -4,-221 317.008,-221 317.008,4 -4,4"/>
<!-- _diagram_info -->
<g id="node1" class="node"><title>_diagram_info</title>
<text text-anchor="start" x="11.9056" y="-202.6" font-family="Times,serif" font-size="13.00">Models diagram</text>
<text text-anchor="start" x="11.9056" y="-189.6" font-family="Times,serif" font-size="13.00">Date: Jun 13 2016 &#45; 09:19</text>
<text text-anchor="start" x="11.9056" y="-176.6" font-family="Times,serif" font-size="13.00">Migration version: 20160613120821</text>
<text text-anchor="start" x="11.9056" y="-163.6" font-family="Times,serif" font-size="13.00">Generated by RailRoady 1.4.2</text>
<text text-anchor="start" x="11.9056" y="-150.6" font-family="Times,serif" font-size="13.00">http://railroady.prestonlee.com</text>
</g>
<!-- Editoria -->
<g id="node2" class="node"><title>Editoria</title>
<ellipse fill="none" stroke="black" cx="38.5933" cy="-90" rx="38.6869" ry="18"/>
<text text-anchor="middle" x="38.5933" y="-85.8" font-family="Times,serif" font-size="14.00">Editoria</text>
</g>
<!-- Noticia -->
<g id="node4" class="node"><title>Noticia</title>
<ellipse fill="none" stroke="black" cx="139.593" cy="-18" rx="36.2732" ry="18"/>
<text text-anchor="middle" x="139.593" y="-13.8" font-family="Times,serif" font-size="14.00">Noticia</text>
</g>
<!-- Editoria&#45;&gt;Noticia -->
<g id="edge1" class="edge"><title>Editoria&#45;&gt;Noticia</title>
<path fill="none" stroke="#1d7348" d="M66.4238,-69.7115C80.3176,-60.0821 97.1004,-48.4506 111.086,-38.7574"/>
<ellipse fill="none" stroke="#1d7348" cx="62.8082" cy="-72.2174" rx="4.00002" ry="4.00002"/>
<polygon fill="#1d7348" stroke="#1d7348" points="111.163,-38.7042 121.945,-36.7064 115.273,-35.856 119.382,-33.0078 119.382,-33.0078 119.382,-33.0078 115.273,-35.856 116.819,-29.3092 111.163,-38.7042 111.163,-38.7042"/>
</g>
<!-- Marcador -->
<g id="node3" class="node"><title>Marcador</title>
<ellipse fill="none" stroke="black" cx="139.593" cy="-90" rx="44.4578" ry="18"/>
<text text-anchor="middle" x="139.593" y="-85.8" font-family="Times,serif" font-size="14.00">Marcador</text>
</g>
<!-- Marcador&#45;&gt;Noticia -->
<g id="edge2" class="edge"><title>Marcador&#45;&gt;Noticia</title>
<path fill="none" stroke="#52968c" d="M139.593,-61.6651C139.593,-56.6867 139.593,-51.4906 139.593,-46.5072"/>
<polygon fill="#52968c" stroke="#52968c" points="139.593,-61.6966 135.093,-71.6966 139.593,-66.6966 139.593,-71.6966 139.593,-71.6966 139.593,-71.6966 139.593,-66.6966 144.093,-71.6967 139.593,-61.6966 139.593,-61.6966"/>
<polygon fill="#52968c" stroke="#52968c" points="139.593,-46.1043 144.093,-36.1043 139.593,-41.1043 139.593,-36.1043 139.593,-36.1043 139.593,-36.1043 139.593,-41.1043 135.093,-36.1044 139.593,-46.1043 139.593,-46.1043"/>
</g>
<!-- Permission -->
<g id="node5" class="node"><title>Permission</title>
<ellipse fill="none" stroke="black" cx="263.593" cy="-18" rx="49.3291" ry="18"/>
<text text-anchor="middle" x="263.593" y="-13.8" font-family="Times,serif" font-size="14.00">Permission</text>
</g>
<!-- Role -->
<g id="node6" class="node"><title>Role</title>
<ellipse fill="none" stroke="black" cx="256.593" cy="-180.5" rx="27" ry="18"/>
<text text-anchor="middle" x="256.593" y="-176.3" font-family="Times,serif" font-size="14.00">Role</text>
</g>
<!-- Role&#45;&gt;Permission -->
<g id="edge3" class="edge"><title>Role&#45;&gt;Permission</title>
<path fill="none" stroke="#ee65e5" d="M260.084,-154.482C261.82,-140.784 263.729,-123.492 264.593,-108 265.484,-92.0248 264.744,-87.9993 264.593,-72 264.515,-63.6817 264.367,-54.63 264.209,-46.3999"/>
<ellipse fill="none" stroke="#ee65e5" cx="259.554" cy="-158.532" rx="4.00001" ry="4.00001"/>
<polygon fill="#ee65e5" stroke="#ee65e5" points="264.204,-46.1825 268.499,-36.0924 264.102,-41.1836 264,-36.1846 264,-36.1846 264,-36.1846 264.102,-41.1836 259.501,-36.2768 264.204,-46.1825 264.204,-46.1825"/>
</g>
<!-- User -->
<g id="node7" class="node"><title>User</title>
<ellipse fill="none" stroke="black" cx="228.593" cy="-90" rx="27" ry="18"/>
<text text-anchor="middle" x="228.593" y="-85.8" font-family="Times,serif" font-size="14.00">User</text>
</g>
<!-- Role&#45;&gt;User -->
<g id="edge4" class="edge"><title>Role&#45;&gt;User</title>
<path fill="none" stroke="#9ba95a" d="M248.168,-152.871C244.614,-141.637 240.486,-128.591 236.94,-117.383"/>
<polygon fill="#9ba95a" stroke="#9ba95a" points="248.178,-152.902 246.904,-163.794 249.686,-157.669 251.195,-162.436 251.195,-162.436 251.195,-162.436 249.686,-157.669 255.485,-161.079 248.178,-152.902 248.178,-152.902"/>
<polygon fill="#9ba95a" stroke="#9ba95a" points="236.897,-117.245 238.171,-106.354 235.389,-112.478 233.88,-107.711 233.88,-107.711 233.88,-107.711 235.389,-112.478 229.59,-109.069 236.897,-117.245 236.897,-117.245"/>
</g>
<!-- User&#45;&gt;Noticia -->
<g id="edge5" class="edge"><title>User&#45;&gt;Noticia</title>
<path fill="none" stroke="#df8018" d="M205.401,-70.7587C193.424,-61.3391 178.753,-49.7995 166.304,-40.0086"/>
<ellipse fill="none" stroke="#df8018" cx="208.709" cy="-73.3607" rx="4.00002" ry="4.00002"/>
<polygon fill="#df8018" stroke="#df8018" points="165.962,-39.7393 160.884,-30.0201 162.032,-36.6483 158.102,-33.5572 158.102,-33.5572 158.102,-33.5572 162.032,-36.6483 155.32,-37.0942 165.962,-39.7393 165.962,-39.7393"/>
</g>
<!-- User&#45;&gt;Permission -->
<g id="edge6" class="edge"><title>User&#45;&gt;Permission</title>
<path fill="none" stroke="#f1419d" d="M240.389,-65.4095C243.612,-58.9632 247.125,-51.9371 250.42,-45.3476"/>
<ellipse fill="none" stroke="#f1419d" cx="238.5" cy="-69.1869" rx="4.00002" ry="4.00002"/>
<polygon fill="#f1419d" stroke="#f1419d" points="250.559,-45.0682 259.056,-38.1364 252.795,-40.5961 255.031,-36.1239 255.031,-36.1239 255.031,-36.1239 252.795,-40.5961 251.006,-34.1114 250.559,-45.0682 250.559,-45.0682"/>
</g>
</g>
</svg>
